<svg xmlns="http://www.w3.org/2000/svg" xmlns:xlink="http://www.w3.org/1999/xlink" width="300" zoomAndPan="magnify" viewBox="0 0 224.87999 74.999997" height="100" preserveAspectRatio="xMidYMid meet" version="1.0"><defs><g/><clipPath id="e5a8243d17"><path d="M 0 0.0195312 L 224.761719 0.0195312 L 224.761719 74.980469 L 0 74.980469 Z M 0 0.0195312 " clip-rule="nonzero"/></clipPath></defs><g clip-path="url(#e5a8243d17)"><path fill="#ffffff" d="M 0 0.0195312 L 224.878906 0.0195312 L 224.878906 82.476562 L 0 82.476562 Z M 0 0.0195312 " fill-opacity="1" fill-rule="nonzero"/><path fill="#ffffff" d="M 0 0.0195312 L 224.878906 0.0195312 L 224.878906 74.980469 L 0 74.980469 Z M 0 0.0195312 " fill-opacity="1" fill-rule="nonzero"/><path fill="#ffffff" d="M 0 0.0195312 L 224.878906 0.0195312 L 224.878906 74.980469 L 0 74.980469 Z M 0 0.0195312 " fill-opacity="1" fill-rule="nonzero"/></g><g fill="#ffffff" fill-opacity="1"><g transform="translate(74.54001, 50.899246)"><g><path d="M 10.554688 -33.996094 L 2.535156 -33.996094 L 2.535156 0 L 10.554688 0 L 10.554688 -12.988281 L 28.515625 -12.988281 L 28.515625 0 L 36.53125 0 L 36.53125 -33.996094 L 28.515625 -33.996094 L 28.515625 -21.003906 L 10.554688 -21.003906 Z M 10.554688 -33.996094 "/></g></g></g><g fill="#ffffff" fill-opacity="1"><g transform="translate(111.749719, 50.899246)"><g><path d="M 36.53125 -33.996094 L 2.535156 -33.996094 L 2.535156 0 L 10.554688 0 L 10.554688 -6.496094 L 28.515625 -6.496094 L 28.515625 0 L 36.53125 0 Z M 10.554688 -14.511719 L 10.554688 -25.976562 L 28.515625 -25.976562 L 28.515625 -14.511719 Z M 10.554688 -14.511719 "/></g></g></g><g fill="#ffffff" fill-opacity="1"><g transform="translate(37.246184, 63.76205)"><g><path d="M 2.535156 -33.996094 L 2.535156 0 L 36.53125 0 L 36.53125 -8.015625 L 10.554688 -8.015625 L 10.554688 -25.976562 L 36.53125 -25.976562 L 36.53125 -33.996094 Z M 2.535156 -33.996094 "/></g></g></g><g fill="#ffffff" fill-opacity="1"><g transform="translate(150.110549, 63.76205)"><g><path d="M 10.554688 -25.976562 L 28.515625 -25.976562 L 28.515625 -8.015625 L 10.554688 -8.015625 Z M 2.535156 0 L 36.53125 0 L 36.53125 -33.996094 L 2.535156 -33.996094 Z M 2.535156 0 "/></g></g></g><g fill="#ffffff" fill-opacity="1"><g transform="translate(83.342117, 66.557483)"><g><path d="M 6.28125 -3.984375 L 9.296875 -3.78125 L 9.375 -1.203125 L 8.765625 -0.03125 L 1.484375 0.015625 L 0.40625 -0.5625 L 0.328125 -11.859375 L 0.8125 -12.921875 L 8.5625 -12.828125 L 9.53125 -11.96875 L 9.3125 -8.484375 L 6.25 -8.484375 L 5.984375 -10.3125 L 3.71875 -10.40625 L 3.859375 -2.390625 L 6.015625 -2.234375 Z M 6.28125 -3.984375 "/></g></g></g><g fill="#ffffff" fill-opacity="1"><g transform="translate(93.194536, 66.557483)"><g><path d="M 8.625 -9.4375 L 9.625 -8.171875 L 9.515625 -0.03125 L 6.171875 -0.09375 L 6.046875 -6.375 L 3.84375 -6.234375 L 3.9375 -0.203125 L 0.375 0.015625 L 0.328125 -12.90625 L 3.703125 -12.65625 L 3.796875 -9.15625 Z M 8.625 -9.4375 "/></g></g></g><g fill="#ffffff" fill-opacity="1"><g transform="translate(103.14387, 66.557483)"><g><path d="M 9.453125 -8.78125 L 9.5625 0 L 7.34375 0.015625 L 7.015625 -0.546875 L 6.640625 0 L 1.53125 -0.046875 L 0.328125 -0.9375 L 0.609375 -5.140625 L 1.546875 -5.78125 L 6.078125 -5.859375 L 6.125 -6.96875 L 3.828125 -7.125 L 3.546875 -6.53125 L 0.59375 -6.71875 L 0.4375 -7.890625 L 1.28125 -9.3125 L 8.390625 -9.40625 Z M 6.1875 -2.515625 L 6.171875 -4 L 3.765625 -3.96875 L 3.859375 -2.625 Z M 6.1875 -2.515625 "/></g></g></g><g fill="#ffffff" fill-opacity="1"><g transform="translate(113.02859, 66.557483)"><g><path d="M 8.140625 -9.328125 L 8.984375 -8.21875 L 8.9375 -5.3125 L 8.453125 -4.53125 L 5.90625 -4.578125 L 5.6875 -6.5 L 3.828125 -6.59375 L 3.828125 -0.03125 L 0.453125 -0.203125 L 0.328125 -9.421875 L 2.34375 -9.40625 L 2.65625 -8.875 L 3.03125 -9.3125 Z M 8.140625 -9.328125 "/></g></g></g><g fill="#ffffff" fill-opacity="1"><g transform="translate(122.33186, 66.557483)"><g><path d="M 0.359375 -12.890625 L 4.6875 -12.890625 L 4.21875 -0.28125 L 0.890625 0 L 0.953125 -9.890625 L 0.328125 -10.171875 Z M 0.359375 -12.890625 "/></g></g></g><g fill="#ffffff" fill-opacity="1"><g transform="translate(127.338827, 66.557483)"><g><path d="M 0.328125 -0.03125 L 0.40625 -9.453125 L 3.90625 -9.453125 L 3.46875 -0.1875 Z M 3.03125 -9.78125 L 1.28125 -9.734375 L 0.46875 -10.296875 L 0.546875 -12.90625 L 3.609375 -12.90625 L 4 -12.46875 L 3.65625 -10.28125 Z M 3.03125 -9.78125 "/></g></g></g><g fill="#ffffff" fill-opacity="1"><g transform="translate(131.667431, 66.557483)"><g><path d="M 6.296875 -2.890625 L 9.25 -2.703125 L 9.421875 -1.53125 L 8.578125 -0.109375 L 1.46875 -0.015625 L 0.40625 -0.640625 L 0.328125 -8.421875 L 1.328125 -9.46875 L 8.328125 -9.328125 L 9.53125 -8.5 L 9.234375 -4.0625 L 8.28125 -3.40625 L 3.78125 -3.53125 L 3.734375 -2.453125 L 6.03125 -2.3125 Z M 6.09375 -5.1875 L 6 -6.8125 L 3.671875 -6.921875 L 3.6875 -5.390625 Z M 6.09375 -5.1875 "/></g></g></g></svg>