<svg xmlns="http://www.w3.org/2000/svg" xmlns:xlink="http://www.w3.org/1999/xlink" width="300" zoomAndPan="magnify" viewBox="0 0 224.87999 74.999997" height="100" preserveAspectRatio="xMidYMid meet" version="1.0"><defs><g/></defs><g fill="#000000" fill-opacity="1"><g transform="translate(72.47252, 50.899246)"><g><path d="M 10.554688 -33.996094 L 2.535156 -33.996094 L 2.535156 0 L 10.554688 0 L 10.554688 -12.988281 L 28.515625 -12.988281 L 28.515625 0 L 36.53125 0 L 36.53125 -33.996094 L 28.515625 -33.996094 L 28.515625 -21.003906 L 10.554688 -21.003906 Z M 10.554688 -33.996094 "/></g></g></g><g fill="#000000" fill-opacity="1"><g transform="translate(113.323608, 50.899246)"><g><path d="M 36.53125 -33.996094 L 2.535156 -33.996094 L 2.535156 0 L 10.554688 0 L 10.554688 -6.496094 L 28.515625 -6.496094 L 28.515625 0 L 36.53125 0 Z M 10.554688 -14.511719 L 10.554688 -25.976562 L 28.515625 -25.976562 L 28.515625 -14.511719 Z M 10.554688 -14.511719 "/></g></g></g><g fill="#000000" fill-opacity="1"><g transform="translate(32.881283, 63.762051)"><g><path d="M 2.535156 -33.996094 L 2.535156 0 L 36.53125 0 L 36.53125 -8.015625 L 10.554688 -8.015625 L 10.554688 -25.976562 L 36.53125 -25.976562 L 36.53125 -33.996094 Z M 2.535156 -33.996094 "/></g></g></g><g fill="#000000" fill-opacity="1"><g transform="translate(152.932251, 63.762051)"><g><path d="M 10.554688 -25.976562 L 28.515625 -25.976562 L 28.515625 -8.015625 L 10.554688 -8.015625 Z M 2.535156 0 L 36.53125 0 L 36.53125 -33.996094 L 2.535156 -33.996094 Z M 2.535156 0 "/></g></g></g><g fill="#292727" fill-opacity="1"><g transform="translate(92.347896, 63.055691)"><g><path d="M 4.34375 -2.75 L 6.421875 -2.609375 L 6.46875 -0.828125 L 6.0625 -0.015625 L 1.03125 0.015625 L 0.28125 -0.390625 L 0.21875 -8.1875 L 0.5625 -8.921875 L 5.90625 -8.859375 L 6.578125 -8.265625 L 6.421875 -5.859375 L 4.3125 -5.859375 L 4.125 -7.125 L 2.5625 -7.1875 L 2.671875 -1.65625 L 4.15625 -1.546875 Z M 4.34375 -2.75 "/></g></g></g><g fill="#292727" fill-opacity="1"><g transform="translate(99.152301, 63.055691)"><g><path d="M 5.953125 -6.515625 L 6.65625 -5.640625 L 6.578125 -0.015625 L 4.265625 -0.0625 L 4.171875 -4.40625 L 2.65625 -4.3125 L 2.71875 -0.140625 L 0.25 0.015625 L 0.21875 -8.90625 L 2.5625 -8.734375 L 2.625 -6.328125 Z M 5.953125 -6.515625 "/></g></g></g><g fill="#292727" fill-opacity="1"><g transform="translate(106.023634, 63.055691)"><g><path d="M 6.53125 -6.0625 L 6.609375 0 L 5.078125 0.015625 L 4.84375 -0.375 L 4.578125 0 L 1.0625 -0.03125 L 0.21875 -0.640625 L 0.421875 -3.546875 L 1.078125 -4 L 4.1875 -4.046875 L 4.234375 -4.8125 L 2.640625 -4.921875 L 2.453125 -4.5 L 0.40625 -4.640625 L 0.296875 -5.4375 L 0.875 -6.421875 L 5.796875 -6.5 Z M 4.265625 -1.734375 L 4.265625 -2.765625 L 2.59375 -2.75 L 2.671875 -1.8125 Z M 4.265625 -1.734375 "/></g></g></g><g fill="#292727" fill-opacity="1"><g transform="translate(112.850351, 63.055691)"><g><path d="M 5.625 -6.4375 L 6.203125 -5.671875 L 6.171875 -3.671875 L 5.828125 -3.125 L 4.078125 -3.15625 L 3.921875 -4.484375 L 2.640625 -4.546875 L 2.640625 -0.015625 L 0.3125 -0.140625 L 0.21875 -6.5 L 1.625 -6.5 L 1.828125 -6.125 L 2.09375 -6.421875 Z M 5.625 -6.4375 "/></g></g></g><g fill="#292727" fill-opacity="1"><g transform="translate(119.275496, 63.055691)"><g><path d="M 0.25 -8.90625 L 3.234375 -8.90625 L 2.90625 -0.1875 L 0.609375 0 L 0.65625 -6.828125 L 0.21875 -7.03125 Z M 0.25 -8.90625 "/></g></g></g><g fill="#292727" fill-opacity="1"><g transform="translate(122.73347, 63.055691)"><g><path d="M 0.21875 -0.015625 L 0.28125 -6.53125 L 2.703125 -6.53125 L 2.40625 -0.140625 Z M 2.09375 -6.75 L 0.875 -6.734375 L 0.328125 -7.109375 L 0.375 -8.90625 L 2.484375 -8.90625 L 2.765625 -8.609375 L 2.515625 -7.09375 Z M 2.09375 -6.75 "/></g></g></g><g fill="#292727" fill-opacity="1"><g transform="translate(125.722945, 63.055691)"><g><path d="M 4.34375 -2 L 6.390625 -1.859375 L 6.5 -1.0625 L 5.921875 -0.078125 L 1.015625 -0.015625 L 0.28125 -0.453125 L 0.21875 -5.8125 L 0.921875 -6.53125 L 5.75 -6.4375 L 6.578125 -5.875 L 6.375 -2.796875 L 5.71875 -2.359375 L 2.609375 -2.4375 L 2.578125 -1.703125 L 4.15625 -1.59375 Z M 4.203125 -3.578125 L 4.140625 -4.703125 L 2.53125 -4.78125 L 2.546875 -3.71875 Z M 4.203125 -3.578125 "/></g></g></g></svg>